<?xml version="1.0" encoding="UTF-8"?>
<!DOCTYPE svg PUBLIC "-//W3C//DTD SVG 1.1//EN" "http://www.w3.org/Graphics/SVG/1.1/DTD/svg11.dtd">
<!-- Creator: CorelDRAW 2019 (64-Bit) -->
<svg xmlns="http://www.w3.org/2000/svg" xml:space="preserve" width="16.9668mm" height="11.0068mm" version="1.1" style="shape-rendering:geometricPrecision; text-rendering:geometricPrecision; image-rendering:optimizeQuality; fill-rule:evenodd; clip-rule:evenodd"
viewBox="0 0 1683.25 1091.97"
 xmlns:xlink="http://www.w3.org/1999/xlink"
 xmlns:xodm="http://www.corel.com/coreldraw/odm/2003">
 <defs>
  <style type="text/css">
   <![CDATA[
    .fil0 {fill:#14BBC0}
    .fil1 {fill:#1C904C}
    .fil3 {fill:#3D3E94}
    .fil2 {fill:#EC3136}
   ]]>
  </style>
 </defs>
 <g id="Layer_x0020_1">
  <metadata id="CorelCorpID_0Corel-Layer"/>
  <g id="_1536887410608">
   <path class="fil0" d="M748.98 416.63c-0.24,-2.85 -5.73,-15.69 -8.21,-32.21 -4.59,-30.64 12.39,-72.69 35.16,-87.94 -2.54,-3.8 -5.86,-6.47 -9.27,-9.82 -10.04,-9.92 -16.45,-22.03 -21.37,-35.9 -7.43,-20.95 -6.17,-45.81 0.72,-66.16 13.1,-38.62 47.81,-62.94 89.67,-65.17 38.67,-2.06 78.9,27.69 91.15,63.2 11.34,32.85 7.98,64.36 -10.53,92.54 -4.5,6.86 -11.84,16.35 -19.11,20.19 2.68,4.01 6.26,6.86 9.82,10.39 4.76,4.71 5.74,6.26 9.49,11.85 6.02,8.98 9.67,17.42 13.13,28.42 11.52,36.64 -5.03,66.12 -5.5,71.75 55.47,-29.35 87.86,-63.83 110.7,-122.87 14.71,-38.03 16.26,-85.23 8.07,-123.9 -7.22,-34.03 -18.47,-55.05 -35.66,-81.12 -3.26,-4.95 -6.58,-8.66 -10.26,-13.32 -36.45,-46.17 -99.74,-76.65 -159.3,-76.52 -29.25,0.05 -56.62,6.7 -77.99,15.24 -16.62,6.65 -31.31,15.07 -45.23,25.52 -66.21,49.74 -99.39,130.34 -86.15,213.53 4.03,25.33 13.21,51.84 23.72,70.62 6.68,11.94 19.72,32.08 29.27,41.47 4.48,4.41 6.51,8.4 11.35,12.23 4.91,3.9 7.78,7.06 12.66,10.92 10.39,8.2 31.55,24.28 43.65,27.09z"/>
   <path class="fil0" d="M1527.16 744.51c-31.68,0 -56.2,-17.53 -69.64,-44.89 -18.61,-37.93 -4.24,-89.41 34.82,-108.96 30.26,-15.15 70.82,-7.73 89.39,16.19 49.06,63.21 3.02,137.66 -54.56,137.66zm-139.24 -87.58c0,41.26 8.17,73.86 36.78,102.46 12.32,12.32 21.13,18.25 37.34,25.54 30.68,13.76 72.1,15.18 104.26,3.22 12.18,-4.53 15.13,-6.44 25.11,-13.08 3.37,-2.25 4.78,-3.96 7.62,-5.86l0 21.34 81.98 0 0 -13.47c-8.52,-0.19 -14.6,-4.54 -14.6,-13.47l0 -202.13c0,-7.81 7.32,-11.75 14.6,-12.35l0 -13.47 -79.73 0 0 20.21c-11.98,-6.34 -11.58,-9.96 -32.72,-17.81 -79.27,-29.43 -180.63,22.91 -180.63,118.87z"/>
   <path class="fil0" d="M1218.36 744.51c-18.58,0 -41.97,-10.02 -53.07,-22.16 -6.12,-6.69 -11.37,-14.47 -15.45,-22.73 -25.74,-52.09 12.99,-116.81 64.03,-116.81l8.98 0c19.52,0 41.96,12.48 50.71,23.41 27.68,34.58 29.68,83.43 -1.58,114.43 -14.44,14.33 -30.61,23.86 -53.62,23.86zm-138.12 -87.58c0,25.69 1.5,40.09 10.74,63.36 3.15,7.95 6.57,14 10.8,20.64 4.94,7.73 8.34,11.58 14.67,17.9 43.07,43.05 116.34,50.13 167.27,16.25 3.38,-2.25 4.79,-3.96 7.63,-5.86l0 21.34 81.97 0 0 -13.47c-7.51,-0.17 -14.59,-4.71 -14.59,-12.35l0 -201.01c0,-9.43 5.94,-13.88 14.59,-14.59l0 -13.47 -79.72 0 0 20.21c-12.06,-6.39 -8.06,-7.86 -32.72,-17.82 -44.6,-18 -108.41,-4.83 -141.06,28.19 -2.87,2.9 -5.01,4.96 -7.87,7.85 -3.08,3.1 -4.76,5.74 -7.49,9.36 -2.67,3.52 -4.11,6.06 -6.18,9.53 -10.87,18.18 -18.04,39.13 -18.04,63.95z"/>
   <path class="fil0" d="M523.27 612.01c0,60.32 52.43,76.05 104.42,78.62l41.25 3.67c12.18,1.61 26.68,4.6 31.46,14.58 5.9,12.32 -0.87,22.81 -12.4,28.54 -25.64,12.74 -64.65,6.2 -90.19,-2.31 -8.12,-2.71 -14.42,-5.13 -21.41,-8.91 -11.85,-6.42 -15.45,-13.67 -12.7,-25.49 -5.52,-1.29 -7.71,-3.41 -12.35,-4.49l-30.16 68.66c-1.81,4.32 -3.41,5.76 -3.53,11.07 5.62,1.3 8.52,4.08 13.48,4.48 2.58,-9.68 14.93,-4.66 20.24,-2.27 74.13,33.38 221.18,29.13 221.18,-62.86 0,-18.26 -2.56,-31.41 -13.3,-45.08 -21.18,-26.94 -54.97,-33.86 -89.97,-35.79 -10.43,-0.58 -21.69,-2.44 -32.5,-3.44 -14.41,-1.33 -47.26,-4.48 -47.26,-24.6 0,-23.62 46.3,-29.21 71.26,-25.22 21.79,3.48 38.17,8.21 52,22.11 5.35,5.36 6.99,8.3 6.99,18.83 5.62,1.31 8.52,4.08 13.47,4.49 1.9,-8.16 34.31,-71.4 34.81,-77.48 -4.22,-0.98 -8,-4.4 -10.85,-3.93 -2.69,0.45 -6.73,5.05 -11.61,5.05 -9.76,0 -45.56,-21.34 -97.69,-21.34 -43.12,0 -89.46,8.24 -112.93,42.03 -6.78,9.77 -11.72,25.06 -11.72,41.06z"/>
   <path class="fil0" d="M873.63 556.99c0,-4.15 0,-8.26 0.06,-12.42 0.08,-4.76 1.11,-8.91 -3.43,-8.91l-77.48 0c-4.37,0 -3.36,2.88 -3.36,10.1 0,4.17 7.87,4.61 11.47,7.62 3.4,2.84 4.25,9.93 4.25,15.96l0 189.78c0,21.87 -15.71,14.18 -15.71,21.33l0 10.11 98.81 0 0 -10.11c0,-5.87 -14.59,-3.1 -14.59,-15.71l0 -124.65c0,-13.95 9.4,-29.92 16.54,-37.36 27.61,-28.76 93.5,-26.6 93.5,29.5l0 130.25c0,4.41 -1.16,8.54 -3.82,10.78 -2.3,1.95 -6.86,3.73 -10.77,3.82l0 13.47 98.81 0 0 -10.11c0,-5.43 -8.63,-2.54 -13.07,-9.39 -4.77,-7.35 -2.65,-55.29 -2.65,-65.84 0,-38.39 5.5,-94.74 -10.11,-125.78 -19.16,-38.1 -52.04,-48.27 -98.82,-48.27 -18.71,0 -39.36,7.94 -54.65,16.08 -5.88,3.13 -9.52,6.87 -14.96,9.74z"/>
   <path class="fil0" d="M-0 542.39c10.59,0.24 14.59,5.98 14.59,16.85l0 201c0,9.88 -4.18,16.61 -14.59,16.85l0 13.47 99.94 0 0 -10.11c0,-9.28 -15.72,6.9 -15.72,-29.2l0 -77.48 11.23 0c1.03,3.88 14.88,19.01 17.81,22.62l18.96 22.59c3.29,3.7 6.04,7.3 9.12,11.1 3.2,3.97 6.51,7.38 9.78,11.55 4.39,5.59 16.2,17.47 16.2,25.35 0,10.21 -14.6,7.69 -14.6,13.47l0 10.11 120.16 0 0 -13.47c-6.27,-0.53 -16.19,-7.76 -19.94,-11.51 -3.29,-3.29 -5.22,-4.21 -8.44,-7.27 -10.64,-10.12 -37.59,-44.85 -52.18,-61.24l-29.64 -35.49c-4.98,-6.15 -10.11,-11.67 -14.43,-18.12 6.41,-4.31 20.67,-20.12 27.23,-26.68 9.26,-9.26 17.69,-17.69 26.94,-26.94 16.03,-16.03 25.13,-24.87 45.74,-35.11 7.23,-3.59 9.27,-3.32 14.97,-5.25 5.02,-1.69 4.15,0.8 4.15,-13.82l-124.65 0 0 10.1c0,7.26 11.23,-1.5 11.23,14.6 0,4.85 -57.97,61.76 -61.77,61.76 -5.46,0 -7.86,0.76 -7.86,-3.37l0 -89.83 -84.22 0 0 13.48z"/>
   <path class="fil0" d="M380.67 564.84l0 -29.19 -83.1 0 0 13.47c14.89,0.33 15.71,10.48 15.71,25.82 0,22.41 2.04,186.69 -2.19,195.43 -3.71,7.66 -13.52,4.32 -13.52,10.06l0 10.11 99.93 0 0 -10.11c0,-8.39 -16.84,1.42 -16.84,-24.7 0,-37.95 -4.37,-105.99 11.58,-135.52 13.12,-24.28 24.88,-30.67 50.18,-30.67 14.54,0 31.44,10.16 31.44,24.7 0,6.67 0.51,8.85 -2.24,14.59 3.38,1.8 8.44,4.7 12.35,5.62 2.25,-9.66 32.66,-69.37 34.81,-78.6 -10.05,-6.73 -13.93,-12.52 -31,-18.41 -33.68,-11.62 -68.72,-11.19 -95.58,13.12l-10.02 12.43c-1.66,2.18 -0.51,0.67 -1.52,1.85z"/>
   <path class="fil1" d="M834.32 454.8c22.43,0 47.39,-8.84 59.53,-24.68 12.76,-16.66 22.44,-29.33 22.44,-56.16 0,-35.06 -19.07,-60.55 -46.03,-74.12 -31.06,-15.64 -66.35,-7.24 -90.14,16.55 -35.92,35.92 -29.45,104.46 22,130.18 9.23,4.62 18.85,8.23 32.19,8.23z"/>
   <path class="fil2" d="M441.31 883.76c0,19.47 1.29,32.71 16.56,46.32 15.07,13.43 47.1,16.9 66.09,9.39 7.47,-2.96 10.51,-5.88 16.16,-9.67l0 10.11 20.22 0 0 -53.9 -53.9 0 0 17.97 32.56 0c-3.66,6.91 -3.14,8.95 -12.37,14.57 -12.37,7.55 -36.61,8.22 -48.02,-2.47 -10.8,-10.12 -11.48,-15.6 -11.48,-30.07 0,-40.48 59.31,-35.57 64.01,-17.97 11.73,0 19.19,-2.54 29.2,-3.37 -25.42,-48.02 -119.03,-34.67 -119.03,19.1z"/>
   <path class="fil2" d="M658.03 870.27l0 0zm0 0c2.97,1.98 6.3,7.17 8.82,10.27 2.9,3.55 5.68,6.81 8.86,10.23l30.94 36.44c13.96,16.5 8.58,12.69 36.72,12.69l0.13 -94.46c-0.06,-8.03 -1.05,-6.82 -9.05,-6.68 -5.26,0.1 -10.52,0.07 -15.78,0.07l0 53.9c-0.02,7.4 0.65,11.18 1.12,16.85l-54.06 -62.72c-8.75,-10.9 -6.52,-8.03 -31.28,-8.03l0 101.06 23.58 0 0 -69.62z"/>
   <path class="fil2" d="M871.38 854.56c43.38,0 46.45,54.94 16.1,67.74 -9.2,3.88 -18.91,3.44 -28.25,0.56 -32.9,-10.14 -26.48,-68.29 12.15,-68.29zm-59.51 34.8c0,32.72 25.24,53.9 55.02,53.9 19.42,0 34.55,-0.71 50.22,-13.78 16.97,-14.14 20.8,-47.11 10.37,-67.02 -21.41,-40.81 -115.61,-38.6 -115.61,26.9z"/>
   <path class="fil2" d="M55.02 921.93l-28.08 0 0 -65.13c26.92,0 57.27,-4.61 57.27,26.95 0,19.63 -1.46,38.18 -29.2,38.18zm-52.78 17.97l60.65 0c35.85,0 55.9,-35.28 43.12,-72.31 -2.54,-7.34 -5.4,-10.73 -10.26,-15.58 -8.88,-8.86 -21.18,-13.17 -38.48,-13.17l-55.02 0 0 101.06z"/>
   <path class="fil2" d="M1001.64 866.91c0,29.26 33.35,29.41 54.21,33.38 10.6,2.01 18.78,2.05 18.78,12.65 0,1.52 -1.71,4.13 -2.67,5.19 -6.74,7.52 -43.14,11.97 -54.59,-9.67l-22.46 5.62c2.11,9.06 10.84,16.37 18.17,21.13 18.16,11.8 62.2,11.29 77.57,-4.01 7.88,-7.85 11.26,-24.22 4.61,-35.51 -13.93,-23.63 -68.91,-12.88 -68.91,-29.91 0,-15.12 35.51,-13.98 45.77,-4.23 10.71,10.17 8.57,0.16 27.21,-0.26 -2.1,-25.36 -73.44,-37.88 -92.76,-9.67 -1.88,2.75 -4.93,11.3 -4.93,15.29z"/>
   <path class="fil2" d="M1657.42 909.58c0,22.64 -51.95,16.92 -56.15,-1.12 -8.24,0.68 -15.65,4.95 -23.58,5.62 3.87,16.58 28.3,29.19 49.42,29.19 22.79,0 55.02,-2.97 55.02,-33.68 0,-3.38 -1.49,-9.2 -2.66,-11.94 -1.59,-3.68 -3.74,-5.83 -6.47,-8.13 -17.29,-14.57 -63.86,-8.87 -63.86,-23.73 0,-14.79 30.36,-12.52 40.45,-7.89 2.12,0.97 3.82,1.97 5.5,3.49l1.11 1.14c1.98,1.99 2.02,3.25 3.47,3.25 3.53,0 21.17,-4.45 23.58,-5.61 -22.93,-34.25 -74.16,-27.8 -89.6,-13.24 -8.17,7.71 -12.69,23.28 -4.95,34.79 15.48,23.02 68.72,13.26 68.72,27.86z"/>
   <path class="fil2" d="M1458.66 943.26c19.45,0 31.64,0.68 48.32,-11.19 6.93,-4.94 17.04,-16.27 17.94,-26.98l-25.83 0c-9.77,14.59 -13.08,19.09 -33.68,19.09 -43.59,0 -43.65,-69.61 1.12,-69.61 12.66,0 26.58,7.05 29.2,16.84 8.7,-0.71 18.86,-3.36 28.07,-3.36 -7.18,-30.87 -69.82,-44.26 -98.5,-19.9 -18.3,15.55 -23.2,38.71 -16.2,60.5 6.64,20.65 28.03,34.63 49.57,34.63z"/>
   <path class="fil2" d="M323.4 865.78l17.97 37.06 -33.69 0c2.53,-4.77 15.4,-33.11 15.72,-37.06zm-59.52 74.12l28.08 0c0.96,-4.14 6.08,-19.09 10.1,-19.09 52.22,0 45.26,-3.75 50.91,8.6 1.96,4.29 2.96,5.52 4.12,10.49l28.07 0c-0.46,-5.57 -30.11,-64.72 -34.79,-75.25 -2,-4.49 -3.49,-8.1 -5.63,-12.34 -2.32,-4.6 -4.3,-7.8 -5.62,-13.47l-28.08 0c-1.13,4.84 -3.74,8.19 -5.61,12.37l-41.56 88.69z"/>
   <polygon class="fil2" points="1153.23,857.92 1189.16,857.92 1189.16,939.9 1214.99,939.9 1214.99,857.92 1250.93,857.92 1250.93,838.84 1153.23,838.84 "/>
   <polygon class="fil2" points="178.55,939.9 204.37,939.9 204.37,838.84 178.55,838.84 "/>
   <polygon class="fil2" points="1312.68,939.9 1338.51,939.9 1338.51,838.84 1312.68,838.84 "/>
   <path class="fil3" d="M1277.87 1056.68c0,28.89 34.14,46.58 65.13,25.83 0,8.46 -0.88,7.86 8.99,7.86l0 -35.93 -37.06 0 0 7.86 28.08 0c0,27.2 -54.45,29.41 -54.47,-6.74 -0.01,-24.31 32.59,-35.26 51.52,-16.14 1.71,1.74 0.76,1.2 2.95,2.67 3.63,-0.85 4.93,-1.9 8.99,-2.25 -3.8,-7.16 -6.14,-9.77 -13.44,-13.5 -15.43,-7.89 -35.58,-7.41 -48.7,4.15 -7.71,6.79 -11.97,15.21 -11.97,26.2z"/>
   <path class="fil3" d="M1103.82 1081.38l-22.45 0 0 -50.53c11.47,0 32.25,-1.61 40.15,4.76 13.59,10.94 12.66,45.76 -17.7,45.76zm-32.56 5.62c0,5.63 9.56,3.37 24.7,3.37 13,0 22.25,-1.32 30.58,-6.48 21.6,-13.38 17.76,-60.89 -17.1,-60.89l-38.18 0 0 64z"/>
   <path class="fil3" d="M1577.69 1081.38l-20.21 0 0 -50.53c13.19,0 30.55,-1.6 40,4.91 11.44,7.89 16.27,45.62 -19.79,45.62zm-30.32 8.99c16.07,0 44.34,1.7 55.24,-6.53 23.58,-17.82 14.56,-60.84 -17.05,-60.84l-38.19 0 0 67.37z"/>
   <path class="fil3" d="M1409.25 1082.51c-23.2,0 -34.81,-3.81 -34.81,-29.2 0,-32.37 59.52,-30.87 59.52,2.24 0,14.82 -10.75,26.95 -24.7,26.95zm-44.91 -28.08c0,11.72 0.88,19.6 10.92,28.37 22.34,19.52 72.59,6.69 68.4,-27.91 -5.94,-49.12 -79.33,-41.09 -79.33,-0.47z"/>
   <path class="fil3" d="M1499.09 1082.51c-10.03,0 -18.42,0.74 -27.17,-6.52 -12.9,-10.7 -12.56,-46.26 21.56,-46.26 42.37,0 36.61,52.78 5.62,52.78zm-44.91 -26.95c0,22.1 15.02,35.93 34.8,35.93 16.14,0 34.04,-2.73 41.39,-19.26 17.1,-38.48 -31.31,-67.14 -64.38,-41.91 -6.41,4.89 -11.82,14.43 -11.82,25.23z"/>
   <path class="fil3" d="M797.27 1090.37l59.52 0c4.26,0 3.37,-2.62 3.37,-8.99l-53.9 0c0,-14.29 -2.08,-22.45 3.36,-22.45l46.04 0 0 -7.87 -49.41 0 0 -19.09 48.28 0c4.25,0 3.36,-2.62 3.36,-8.98l-60.64 0 0 67.37z"/>
   <path class="fil3" d="M1190.29 1029.73c41.51,0 36.29,52.78 5.62,52.78l-8.99 0c-15.61,0 -28.1,-11.82 -26.53,-27.64 1.66,-16.77 12.94,-25.14 29.9,-25.14zm-39.31 22.45l0 7.87c0,18.02 16.83,31.44 34.81,31.44 11.65,0 23.42,-0.39 32.87,-8.68 26.91,-23.65 3.55,-73.61 -42.76,-59.6 -4.69,1.42 -7.79,3.18 -11.92,6.04 -5.74,3.97 -13,13.95 -13,22.94z"/>
   <path class="fil3" d="M956.73 1038.71c0,16.67 10.07,17.7 24.49,19.3 14.41,1.6 29.41,0.85 29.41,12.14 0,15.55 -28.71,13.93 -39.66,9.35 -6.31,-2.63 -6.44,-4.13 -10.87,-7.09 -2.71,1.3 -5.11,1.91 -7.86,3.36 4.64,17.4 68.49,27.6 68.49,-7.86 0,-11.94 -12.32,-15.66 -22.24,-17.05 -18.74,-2.62 -31.66,0.22 -31.66,-11.02 0,-13.66 35.48,-13.54 43.8,-1.12 2.11,-1.01 6.55,-2.8 8.98,-3.36 -5.07,-18.99 -62.88,-20.64 -62.88,3.36z"/>
   <path class="fil2" d="M1601.27 530.04l79.73 0c0,-8.14 -0.94,-70.42 0.78,-76.71 0.67,-2.46 1.79,0.92 0.51,-3.3 -0.86,-2.87 -0.45,-1.65 -2.42,-3.09 -1.69,7.27 -0.94,15.66 -6.29,31.88 -1.93,5.85 -3.42,9.49 -6.09,14.13 -1.93,3.36 -6.2,9.41 -9.4,11.93 -8.21,6.51 -15.64,11.05 -25.79,14.63 -5.81,2.04 -8.77,3.4 -15.06,5.15l-13.81 4.17c-2.31,1.07 -1,0.4 -2.16,1.21z"/>
   <path class="fil3" d="M863.52 1030.85l25.82 0 0 56.14c0,4.37 2.89,3.37 10.11,3.37l0 -59.52 26.95 0 0 -7.86 -62.89 0 0 7.86z"/>
   <path class="fil3" d="M735.51 1087c0,2.59 0.78,3.37 3.36,3.37l49.42 0 0 -8.99 -42.68 0 0 -58.38 -10.1 0 0 64z"/>
   <path class="fil3" d="M934.26 1034.23l3.36 0 0 5.61c-4.6,1.24 -3.36,0.84 -3.36,6.75 12.2,-2.85 10.11,-5.04 10.11,-23.58l-10.11 0 0 11.23z"/>
   <path class="fil3" d="M1625.97 1087c0,2.59 0.78,3.37 3.37,3.37l7.86 0 0 -11.23 -11.23 0 0 7.86z"/>
   <path class="fil3" d="M1672.02 1087c0,5.02 11.23,5.02 11.23,0l0 -7.86 -11.23 0 0 7.86z"/>
   <polygon class="fil3" points="1649.56,1090.37 1659.67,1090.37 1659.67,1079.14 1649.56,1079.14 "/>
   <polygon class="fil0" points="748.98,416.63 748.98,417.75 750.29,416.81 "/>
  </g>
 </g>
</svg>
